<svg xmlns="http://www.w3.org/2000/svg" viewBox="0 0 120 120" width="100" height="100" role="img" aria-label="IoT">
  <!-- Original IoT mark: a connected node-mesh (central hub + satellite nodes),
       the universal IoT visual language. No third-party brand artwork. -->
  <defs>
    <linearGradient id="iotBadge" x1="0" y1="0" x2="1" y2="1">
      <stop offset="0" stop-color="#127d99"/>
      <stop offset="1" stop-color="#0a5468"/>
    </linearGradient>
  </defs>

  <!-- Badge -->
  <rect x="4" y="4" width="112" height="112" rx="28" fill="url(#iotBadge)"/>

  <!-- Soft signal ring -->
  <circle cx="60" cy="60" r="40" fill="none" stroke="#9fe3ef" stroke-width="1.5" opacity="0.22"/>

  <!-- Edges: hub -> satellite nodes -->
  <g stroke="#bfeef6" stroke-width="2.4" stroke-linecap="round" opacity="0.85">
    <line x1="60" y1="60" x2="60" y2="26"/>
    <line x1="60" y1="60" x2="89" y2="43"/>
    <line x1="60" y1="60" x2="89" y2="77"/>
    <line x1="60" y1="60" x2="60" y2="94"/>
    <line x1="60" y1="60" x2="31" y2="77"/>
    <line x1="60" y1="60" x2="31" y2="43"/>
  </g>

  <!-- Satellite nodes -->
  <g fill="#eafcff">
    <circle cx="60" cy="26" r="6.5"/>
    <circle cx="89" cy="77" r="6.5"/>
    <circle cx="60" cy="94" r="6.5"/>
    <circle cx="31" cy="43" r="6.5"/>
  </g>

  <!-- Accent nodes -->
  <g fill="#4fd1c5">
    <circle cx="89" cy="43" r="6.5"/>
    <circle cx="31" cy="77" r="6.5"/>
  </g>

  <!-- Central hub (the "thing") -->
  <circle cx="60" cy="60" r="14" fill="#eafcff"/>
  <circle cx="60" cy="60" r="7" fill="#0a5468"/>
</svg>
