<svg xmlns="http://www.w3.org/2000/svg" viewBox="0 0 160 160">
  <!-- Outer rings -->
  <circle cx="80" cy="80" r="74" fill="none" stroke="#2e7d32" stroke-width="3"
          stroke-dasharray="10 4" opacity="0.3"/>
  <circle cx="80" cy="80" r="56" fill="none" stroke="#2e7d32" stroke-width="2.5"
          stroke-dasharray="6 3" opacity="0.5"/>
  <circle cx="80" cy="80" r="38" fill="none" stroke="#43a047" stroke-width="2"
          opacity="0.6"/>
  <!-- Device hexagon -->
  <polygon points="80,28 106,48 106,112 80,132 54,112 54,48"
           fill="#1b5e20" stroke="#2e7d32" stroke-width="2"/>
  <!-- Inner core -->
  <circle cx="80" cy="80" r="14" fill="#43a047"/>
  <circle cx="80" cy="80" r="7" fill="#a5d6a7"/>
  <!-- Signal nodes -->
  <circle cx="80" cy="28" r="4" fill="#66bb6a"/>
  <circle cx="106" cy="48" r="4" fill="#66bb6a"/>
  <circle cx="54" cy="48" r="4" fill="#66bb6a"/>
  <circle cx="106" cy="112" r="4" fill="#66bb6a"/>
  <circle cx="54" cy="112" r="4" fill="#66bb6a"/>
  <!-- Link lines -->
  <line x1="80" y1="28" x2="80" y2="66" stroke="#66bb6a" stroke-width="1.5" opacity="0.6"/>
  <line x1="106" y1="48" x2="94" y2="66" stroke="#66bb6a" stroke-width="1.5" opacity="0.6"/>
  <line x1="54" y1="48" x2="66" y2="66" stroke="#66bb6a" stroke-width="1.5" opacity="0.6"/>
  <line x1="106" y1="112" x2="94" y2="94" stroke="#66bb6a" stroke-width="1.5" opacity="0.6"/>
  <line x1="54" y1="112" x2="66" y2="94" stroke="#66bb6a" stroke-width="1.5" opacity="0.6"/>
  <!-- IoT label -->
  <text x="80" y="156" text-anchor="middle" font-family="monospace"
        font-size="16" font-weight="bold" fill="#c8e6c9" letter-spacing="6">IoT</text>
</svg>
